name C:\Users\u0101727\Documents\MyRepositories\paper-ad\predictivesimulations_2d/Results/PredSim_2D/IK_c3.mot
datacolumns 11
datarows 38
range 0.63318166 0.98814714
endheader
time	pelvis_tilt	pelvis_tx	pelvis_ty	hip_flexion_l	hip_flexion_r	knee_angle_l	knee_angle_r	ankle_angle_l	ankle_angle_r	lumbar_extension	
          0.63318166	        -15.03902419	          0.85495729	          0.89991627	         25.68084981	         11.36012872	        -10.65021013	        -40.88856283	          8.49340659	         -0.30261602	         10.28660509	
          0.64277532	        -15.05612933	          0.86692923	          0.90135424	         24.76190360	         12.63318963	        -10.40283065	        -41.78498650	          8.59639515	          0.67331907	         10.24821731	
          0.65236898	        -15.07075929	          0.87884532	          0.90254857	         23.82766564	         13.93868141	        -10.13057988	        -42.57348446	          8.74026880	          1.72920188	         10.20584673	
          0.66196264	        -15.08289737	          0.89071315	          0.90350253	         22.88258734	         15.27161510	         -9.84129792	        -43.24588411	          8.91916696	          2.84736349	         10.15980884	
          0.67155631	        -15.09266543	          0.90254002	          0.90422669	         21.93057478	         16.62602220	         -9.54205318	        -43.79467049	          9.12662212	          4.00999293	         10.11057743	
          0.68114997	        -15.10022758	          0.91433222	          0.90473797	         20.97577956	         17.99605796	         -9.24037742	        -44.21217746	          9.35496497	          5.19924364	         10.05858561	
          0.69074363	        -15.10572467	          0.92609530	          0.90505705	         20.02277506	         19.37622030	         -8.94414143	        -44.49060610	          9.59612616	          6.39729598	         10.00417626	
          0.70033729	        -15.10930170	          0.93783523	          0.90520533	         19.07635860	         20.76005225	         -8.66169508	        -44.62299058	          9.84214536	          7.58635678	          9.94772602	
          0.70993095	        -15.11117661	          0.94955911	          0.90520302	         18.13979913	         22.14060275	         -8.39872949	        -44.60372646	         10.08565865	          8.74875345	          9.88976882	
          0.71952461	        -15.11166447	          0.96127529	          0.90506819	         17.21392020	         23.51098144	         -8.15656568	        -44.42875621	         10.32000011	          9.86711970	          9.83104600	
          0.72911828	        -15.11104719	          0.97299256	          0.90481637	         16.30011544	         24.86331960	         -7.93795602	        -44.09607848	         10.53836634	         10.92472059	          9.77229276	
          0.73871194	        -15.10956847	          0.98471914	          0.90446067	         15.40053690	         26.18962473	         -7.74653715	        -43.60478241	         10.73464591	         11.90611359	          9.71413270	
          0.74830560	        -15.10746842	          0.99646409	          0.90401181	         14.51676991	         27.48111858	         -7.58534528	        -42.95787394	         10.90417141	         12.79790486	          9.65729713	
          0.75789926	        -15.10500434	          1.00823591	          0.90347895	         13.64974748	         28.72977010	         -7.45642392	        -42.15991548	         11.04395965	         13.58986494	          9.60248089	
          0.76749292	        -15.10243962	          1.02004122	          0.90287023	         12.80032280	         29.92938727	         -7.36083974	        -41.21527088	         11.15285833	         14.27591264	          9.55017236	
          0.77708658	        -15.10001207	          1.03188633	          0.90219222	         11.96920708	         31.07427520	         -7.30026549	        -40.13064017	         11.23157174	         14.85445330	          9.50081160	
          0.78668024	        -15.09794277	          1.04377558	          0.90145035	         11.15672421	         32.16149455	         -7.27560666	        -38.91151556	         11.28290755	         15.32831753	          9.45458745	
          0.79627391	        -15.09644339	          1.05571260	          0.90064844	         10.36276047	         33.18966872	         -7.28726981	        -37.56290436	         11.31132021	         15.70378574	          9.41156770	
          0.80586757	        -15.09573282	          1.06770071	          0.89978852	          9.58706567	         34.15822885	         -7.33525676	        -36.09018966	         11.32213661	         15.98922806	          9.37172843	
          0.81546123	        -15.09609405	          1.07974444	          0.89887075	          8.82903126	         35.06566703	         -7.41900585	        -34.50085010	         11.32062957	         16.19378755	          9.33514492	
          0.82505489	        -15.09791979	          1.09185025	          0.89789403	          8.08761558	         35.90848938	         -7.53746289	        -32.80256101	         11.31040609	         16.32658253	          9.30212639	
          0.83464855	        -15.10153368	          1.10402625	          0.89685722	          7.36246977	         36.68211106	         -7.69091047	        -31.00681038	         11.29229802	         16.39639324	          9.27305788	
          0.84424221	        -15.10700680	          1.11628440	          0.89576296	          6.65448223	         37.37981926	         -7.88299508	        -29.13983666	         11.26471470	         16.41136033	          9.24852856	
          0.85383588	        -15.11437016	          1.12864293	          0.89462361	          5.96567747	         37.98864276	         -8.11993595	        -27.23586921	         11.22163776	         16.37876716	          9.22984214	
          0.86342954	        -15.12364729	          1.14112332	          0.89346085	          5.29920677	         38.49278348	         -8.40884995	        -25.32711147	         11.15066738	         16.30500567	          9.21871942	
          0.87302320	        -15.13452013	          1.15374433	          0.89229721	          4.65947314	         38.88283566	         -8.75819725	        -23.44138127	         11.03552345	         16.19546326	          9.21634561	
          0.88261686	        -15.14619124	          1.16652054	          0.89115067	          4.05173404	         39.15869442	         -9.17782245	        -21.60055852	         10.85968202	         16.05426340	          9.22312480	
          0.89221052	        -15.15744693	          1.17946480	          0.89003554	          3.48127735	         39.32724312	         -9.67805576	        -19.82624636	         10.60886841	         15.88400389	          9.23898553	
          0.90180418	        -15.16706677	          1.19259099	          0.88896400	          2.95299298	         39.39569815	        -10.26858643	        -18.13321001	         10.27022663	         15.68587848	          9.26401913	
          0.91139784	        -15.17390698	          1.20591356	          0.88794522	          2.47131442	         39.37088998	        -10.95798281	        -16.53323837	          9.83160288	         15.45978121	          9.29846383	
          0.92099151	        -15.17671289	          1.21944670	          0.88698448	          2.04085621	         39.26042023	        -11.75523990	        -15.04338077	          9.28214396	         15.20442833	          9.34245816	
          0.93058517	        -15.17422147	          1.23320483	          0.88608284	          1.66713595	         39.06932970	        -12.67064289	        -13.67817454	          8.61087129	         14.91780259	          9.39629422	
          0.94017883	        -15.16502865	          1.24720153	          0.88523602	          1.35606221	         38.80238962	        -13.71511698	        -12.45747393	          7.80734094	         14.59702335	          9.46022437	
          0.94977249	        -15.14757670	          1.26144855	          0.88443285	          1.11329256	         38.46496246	        -14.89887102	        -11.41007485	          6.86403963	         14.23829013	          9.53439767	
          0.95936615	        -15.12042338	          1.27595698	          0.88365423	          0.94361719	         38.05739410	        -16.23119179	        -10.56684797	          5.78097847	         13.83724009	          9.61940188	
          0.96895981	        -15.08237687	          1.29073510	          0.88286864	          0.84995830	         37.57263532	        -17.72505032	         -9.96145335	          4.58050531	         13.38888806	          9.71629935	
          0.97855347	        -15.03328122	          1.30577664	          0.88203224	          0.83504267	         36.99268705	        -19.38640183	         -9.64205296	          3.27616820	         12.88843654	          9.82623595	
          0.98814714	        -14.97569335	          1.32106456	          0.88116841	          0.90610750	         36.24948938	        -21.21211555	         -9.72917783	          1.84792986	         12.33381737	          9.95318404	
